<?xml version="1.0" encoding="UTF-8" standalone="no"?>
<!-- Created with Inkscape (http://www.inkscape.org/) -->

<svg
   xmlns:dc="http://purl.org/dc/elements/1.1/"
   xmlns:cc="http://creativecommons.org/ns#"
   xmlns:rdf="http://www.w3.org/1999/02/22-rdf-syntax-ns#"
   xmlns:svg="http://www.w3.org/2000/svg"
   xmlns="http://www.w3.org/2000/svg"
   xmlns:sodipodi="http://sodipodi.sourceforge.net/DTD/sodipodi-0.dtd"
   xmlns:inkscape="http://www.inkscape.org/namespaces/inkscape"
   id="svg2"
   version="1.1"
   inkscape:version="0.48.4 r9939"
   width="207.3725"
   height="254.79575"
   xml:space="preserve"
   sodipodi:docname="forsvlogo_heraldisk.svg"><metadata
     id="metadata8"><rdf:RDF><cc:Work
         rdf:about=""><dc:format>image/svg+xml</dc:format><dc:type
           rdf:resource="http://purl.org/dc/dcmitype/StillImage" /><dc:title /></cc:Work></rdf:RDF></metadata><defs
     id="defs6"><clipPath
       clipPathUnits="userSpaceOnUse"
       id="clipPath16"><path
         d="m 0,203.85 571.2,0 L 571.2,0 0,0 0,203.85 z"
         id="path18"
         inkscape:connector-curvature="0" /></clipPath></defs><sodipodi:namedview
     pagecolor="#ffffff"
     bordercolor="#666666"
     borderopacity="1"
     objecttolerance="10"
     gridtolerance="10"
     guidetolerance="10"
     inkscape:pageopacity="0"
     inkscape:pageshadow="2"
     inkscape:window-width="1920"
     inkscape:window-height="1145"
     id="namedview4"
     showgrid="false"
     inkscape:zoom="0.54481793"
     inkscape:cx="333.14019"
     inkscape:cy="114.5573"
     inkscape:window-x="0"
     inkscape:window-y="33"
     inkscape:window-maximized="1"
     inkscape:current-layer="g10"
     width="254.81px"
     fit-margin-top="0"
     fit-margin-left="0"
     fit-margin-right="0"
     fit-margin-bottom="0" /><g
     id="g10"
     inkscape:groupmode="layer"
     inkscape:label="forsvlogo_heraldisk"
     transform="matrix(1.25,0,0,-1.25,-23.859807,267.6447)"><g
       id="g24"
       transform="translate(74.702246,91.10676)"><path
         d="M 0,0 1.413,-0.235 1.647,-0.941 C 0.863,-1.729 0.156,-2.12 -0.472,-2.12 l -0.237,0.235 0,1.65 C -0.55,-0.078 -0.315,0 0,0 m 27.569,43.832 c 0.159,-0.315 0.237,-0.55 0.237,-0.707 C 27.491,42.81 27.1,42.654 26.628,42.654 l -0.237,0 -0.235,0.471 0.235,0.235 0.943,0.472 0.235,0.234 0,-0.234 z m -6.361,-2.829 c -0.159,-0.315 -0.159,-0.549 0,-0.706 0.47,-0.472 0.941,-0.706 1.413,-0.706 0.316,-0.159 1.885,-0.237 4.713,-0.237 l -0.943,0.943 c -2.041,0.157 -3.22,0.235 -3.535,0.235 -0.156,0 -0.55,0.237 -1.178,0.706 -0.157,0 -0.313,-0.078 -0.47,-0.235 m 2.826,48.074 c -5.497,0.628 -9.189,0.941 -11.074,0.941 -2.356,0 -3.85,-0.313 -4.478,-0.941 C 8.167,88.449 8.089,87.505 8.248,86.249 l 0,-1.65 c 4.554,0.628 10.132,1.022 16.73,1.178 l -0.235,3.063 -0.709,0.237 z M 3.063,88.84 l -3.535,0 c -3.928,0 -6.598,-0.078 -8.013,-0.235 -1.885,-0.315 -3.141,-0.787 -3.769,-1.415 l 0,-0.47 c -0.157,-0.158 -0.237,-0.393 -0.237,-0.708 -0.157,-1.257 0.158,-3.535 0.943,-6.833 0.472,-0.156 0.785,-0.471 0.944,-0.943 0.156,-0.157 0.312,-0.313 0.469,-0.472 0,-0.157 0.081,-0.313 0.237,-0.47 3.613,2.985 8.248,5.104 13.902,6.361 -0.469,2.515 -0.785,4.243 -0.941,5.185 m 0.707,3.063 -2.592,0 c -5.971,-0.156 -9.976,-0.313 -12.019,-0.469 -2.985,-0.316 -4.87,-1.022 -5.655,-2.122 -0.158,-0.157 -0.315,-0.472 -0.471,-0.944 l 0,-0.941 c -0.157,-1.728 0.235,-4.4 1.178,-8.013 l 1.65,0.237 c 0.785,0 1.491,-0.081 2.119,-0.237 -0.628,2.357 -1.022,4.085 -1.178,5.185 0,1.256 0.237,2.2 0.707,2.828 0.628,0.784 1.887,1.335 3.771,1.65 1.413,0.156 4.163,0.235 8.248,0.235 l 3.535,0 c 0,1.1 0.234,1.962 0.707,2.591 m -0.118,-3.77 0,-0.117 C 3.7,87.694 3.739,87.339 3.77,86.955 3.926,86.17 4.163,85.148 4.476,83.892 l 0,-0.237 0.472,-2.591 c 1.099,0.315 2.199,0.394 3.3,0.235 l -0.237,1.65 c -0.157,0.471 -0.235,1.021 -0.235,1.65 -0.316,2.672 -0.157,4.319 0.472,4.947 0.628,0.787 2.119,1.1 4.476,0.944 1.571,0 5.341,-0.315 11.31,-0.944 l 0.472,0 0,2.122 c -5.341,0.628 -9.504,1.1 -12.489,1.413 l -2.828,0 -0.707,0 -0.706,0 C 6.204,92.925 5.104,92.612 4.476,92.14 l 0,-0.237 -0.235,0 C 4.241,91.747 4.163,91.59 4.004,91.434 3.691,90.805 3.535,90.018 3.535,89.077 l 0,-0.237 c 0.069,-0.212 0.108,-0.446 0.117,-0.707 m 21.326,19.087 c -1.572,-0.313 -2.907,-1.178 -4.007,-2.591 -0.628,-0.943 -1.1,-1.807 -1.413,-2.591 l 5.42,0 0,5.182 z m 16.023,-64.566 0,0.234 c 0.788,0.472 1.572,0.55 2.357,0.237 0.157,-0.787 -0.078,-1.415 -0.707,-1.887 l -0.943,-1.178 0,0.943 c 0.159,0.316 0.315,0.472 0.472,0.472 0.471,0.472 0.628,0.863 0.471,1.179 -0.628,0 -1.1,-0.079 -1.413,-0.237 l -0.237,0.237 z m -7.541,-3.535 0,-0.237 -4.713,0 c -0.469,0.472 -0.706,0.943 -0.706,1.415 l 0,0.235 0.706,0 c 2.2,0 3.535,-0.078 4.007,-0.235 0.156,0 0.393,-0.393 0.706,-1.178 m -3.063,6.363 -0.706,-0.709 -0.707,-0.235 -0.237,0 0,0.235 c 0.159,0.315 0.628,0.709 1.416,1.178 l 5.184,-1.178 0.235,-0.469 0.235,-0.709 -0.47,0.471 c -0.787,0.316 -1.65,0.551 -2.593,0.707 l 0,-0.235 c 0,-0.785 -0.472,-1.1 -1.413,-0.943 -0.316,0 -0.629,0.158 -0.944,0.471 l -0.234,0.707 c 0,0.159 0.156,0.315 0.471,0.472 l -0.237,0.237 z m 1.65,6.832 c 0.157,-0.018 0.235,-0.096 0.235,-0.234 l 0.237,0 c -0.138,0.138 -0.297,0.216 -0.472,0.234 m 6.126,-2.119 0,0.235 c 0,0.628 -0.313,1.021 -0.941,1.178 -0.628,0 -1.022,-0.235 -1.178,-0.707 l -0.237,-0.237 -0.235,0 c -0.472,0.472 -0.943,0.472 -1.413,0 -0.159,-0.469 -0.159,-0.863 0,-1.178 0.157,-0.469 0.55,-0.55 1.178,-0.235 l 0.47,0 0,-0.706 c -0.785,-0.472 -1.491,-0.707 -2.12,-0.707 l -0.943,0 c -1.257,0.313 -2.12,0.941 -2.591,1.885 l 0,0.235 0.471,0.237 c 0.47,-0.316 0.863,-0.472 1.179,-0.472 0.469,0 0.706,0.391 0.706,1.178 0,0.472 -0.157,0.785 -0.472,0.941 -0.471,0.159 -0.943,0.081 -1.413,-0.234 l -0.237,0 -0.234,0.234 c -0.157,0.787 -0.629,1.179 -1.416,1.179 l 0.944,-5.42 12.489,-3.063 3.299,4.241 c -0.627,0.316 -1.256,0.238 -1.884,-0.234 l -0.237,-0.237 -0.235,0.237 c -0.315,0.472 -0.628,0.706 -0.943,0.706 -0.472,0.157 -0.785,0 -0.942,-0.472 -0.315,-0.312 -0.393,-0.628 -0.237,-0.941 0.316,-0.315 0.707,-0.471 1.179,-0.471 l 0.471,0 0,-0.707 c -0.943,-0.472 -1.884,-0.628 -2.828,-0.472 -0.628,0.313 -1.1,0.55 -1.413,0.707 -0.315,0.156 -0.706,0.628 -1.178,1.413 l 0.235,0.237 c 0,0.156 0.078,0.234 0.237,0.234 l 0.234,0 c 0.316,-0.471 0.707,-0.628 1.179,-0.471 0.315,0.159 0.471,0.471 0.471,0.943 0,0.628 -0.393,0.944 -1.178,0.944 l -0.237,0 z M 67.16,45.01 c 1.098,-0.628 2.119,-1.415 3.063,-2.356 0.785,-0.787 1.413,-1.651 1.884,-2.594 -0.943,2.357 -2.59,4.006 -4.947,4.95 M -0.709,39.825 c 0.628,0 1.337,-0.078 2.122,-0.234 l 0,5.419 -2.122,0 0,2.119 -2.12,0 0,-2.119 c -2.671,0.157 -4.713,0.472 -6.128,0.941 -1.728,0.629 -4.869,2.594 -9.426,5.891 -0.313,-1.728 -0.078,-4.475 0.709,-8.247 0.942,-4.554 2.276,-8.089 4.005,-10.604 3.143,3.771 5.578,5.891 7.306,6.363 0.628,0.315 1.806,0.471 3.534,0.471 l 0,-5.891 -0.471,0.235 c -0.628,0.472 -1.493,0.628 -2.591,0.472 l -0.709,0 -1.413,-0.235 c -0.629,0 -1.022,-0.237 -1.178,-0.707 l 1.178,0 1.65,-0.471 0.235,0 0,-0.237 c 0,-0.785 0.156,-1.491 0.471,-2.12 l 0.235,-0.237 2.357,-0.469 0.236,-0.237 0,-0.707 -0.236,0 -1.179,-0.471 c -1.413,-0.472 -2.434,-1.335 -3.063,-2.592 l -0.471,-0.706 c -0.629,-1.1 -0.707,-1.966 -0.235,-2.594 l 0,0.472 c 0.628,0.785 1.335,1.413 2.122,1.885 0.941,-0.313 1.647,-0.472 2.119,-0.472 l 0.237,0 0.706,0.709 0,-20.974 -0.236,0 -0.942,-0.235 C -5.263,4.084 -5.972,3.928 -6.128,3.771 l -0.472,0 C -7.07,3.615 -7.385,3.378 -7.542,3.065 l 1.885,0 0.472,-0.237 c 0.628,-0.156 0.863,-0.55 0.706,-1.179 0.316,-0.94 0.629,-1.413 0.944,-1.413 l 0.706,0 0,-3.534 c -0.786,-0.943 -1.334,-1.806 -1.65,-2.594 l -0.471,-1.177 0.237,-0.707 0.234,0.471 c 0.629,0.785 1.101,1.179 1.414,1.179 l 0.236,0 0,-6.363 2.357,0 -0.237,6.835 0.237,0 0.706,-0.238 c 0.473,-0.156 0.864,0 1.179,0.472 0.785,0.943 1.413,1.807 1.884,2.594 L 3.77,-2.12 c 1.256,0 2.121,-0.156 2.59,-0.472 0.16,-0.156 0.316,-0.706 0.473,-1.649 0,-0.472 0.236,-0.707 0.706,-0.707 l 16.495,20.737 0.472,-0.235 0,-0.237 -7.304,-8.955 c 0.784,-1.727 1.413,-2.828 1.884,-3.297 1.572,-1.572 2.75,-4.006 3.535,-7.306 l 0.472,-2.12 c 0,-0.315 -1.1,-0.866 -3.3,-1.65 l -3.535,-1.65 c -1.1,-0.628 -1.728,-1.178 -1.884,-1.65 -0.316,-0.313 -0.707,-1.335 -1.179,-3.063 l -0.235,-1.413 c -0.943,-5.341 -1.178,-8.406 -0.708,-9.192 l 0.237,-0.471 -0.472,0 -3.535,0.237 c -3.456,0.156 -5.419,0.392 -5.891,0.706 l -0.235,0 c 0,0.157 -0.158,0.707 -0.471,1.651 -0.157,0.785 -0.316,1.335 -0.472,1.647 l 1.178,1.416 c 0.628,0.628 1.022,1.022 1.179,1.178 0.156,0.313 0.234,0.863 0.234,1.65 l 0,2.119 c 0,0.787 -0.234,1.415 -0.707,1.885 0,-1.257 -0.156,-2.197 -0.471,-2.826 l -0.235,0 -1.884,-0.237 c -0.316,-0.313 -0.473,-1.178 -0.473,-2.591 l 0,-0.472 -0.234,-0.234 -0.709,0 c -0.941,1.569 -1.728,2.591 -2.356,3.062 -0.47,0.472 -1.257,0.785 -2.357,0.942 L -6.6,-15.08 c -0.785,0 -1.256,-0.078 -1.413,-0.237 1.1,-0.314 1.806,-0.628 2.122,-0.942 l 0.469,-0.471 -0.235,-0.235 -0.471,-1.416 0,-0.472 c 0,-0.156 0.471,-0.39 1.415,-0.706 l 1.884,-0.471 0.235,-0.236 0,-0.706 -1.65,0 c -0.941,-0.156 -1.569,-0.237 -1.884,-0.237 -0.157,-0.156 -0.235,-0.628 -0.235,-1.413 l -0.237,-0.472 -0.235,0 c -0.472,0 -1.178,0.078 -2.122,0.238 0.159,-0.472 0.55,-0.866 1.179,-1.178 l 1.415,-0.473 0.472,0 c 0.941,-0.156 1.569,-0.236 1.884,-0.236 0.313,0.158 0.863,0.472 1.651,0.943 l 0.469,0.472 0.237,-0.237 c 0.785,-1.256 1.178,-2.12 1.178,-2.591 0,-0.472 -0.315,-1.022 -0.944,-1.651 l -0.706,-0.471 c 0.157,-0.313 0.315,-0.47 0.472,-0.47 l 1.178,0 c 1.413,0 3.063,-0.315 4.948,-0.943 2.513,-0.628 4.791,-1.1 6.835,-1.413 l 0.706,-0.709 c 0.943,-0.628 1.572,-0.941 1.885,-0.941 0.315,0 0.943,0.234 1.885,0.706 l 2.356,0.944 c -0.157,1.256 0.237,2.591 1.178,4.004 0.629,0.787 1.1,1.572 1.415,2.357 -1.256,1.259 -2.278,2.75 -3.063,4.477 l 0,0.945 c -0.471,2.669 -0.549,4.475 -0.236,5.419 0.787,1.256 2.121,2.748 4.006,4.476 2.672,2.357 4.557,4.793 5.657,7.306 l 0.469,0 0,-0.236 c -1.256,-2.827 -3.219,-5.42 -5.891,-7.777 -1.885,-1.569 -3.141,-2.906 -3.77,-4.007 -0.315,-0.784 -0.235,-2.512 0.235,-5.181 l 0,-0.709 c 0.943,-2.041 3.065,-4.633 6.363,-7.777 2.513,-2.512 4.007,-4.397 4.478,-5.654 0.472,-1.887 0.863,-4.399 1.179,-7.541 0.628,-4.4 0.628,-7.307 0,-8.72 -0.788,-0.471 -1.494,-0.706 -2.122,-0.706 -0.157,0 -0.313,0.078 -0.472,0.235 -0.156,0 -0.55,0.707 -1.178,2.122 l -0.707,1.884 c -0.628,0.157 -1.178,0.472 -1.65,0.944 -1.569,0.785 -2.669,1.019 -3.298,0.707 1.257,-1.101 2.042,-1.885 2.357,-2.358 l 0,-0.236 c -0.472,-0.47 -0.706,-1.179 -0.706,-2.12 0.156,-0.472 1.256,-1.1 3.297,-1.885 l 0.237,-0.236 -0.237,-0.707 -3.535,-0.706 -0.471,-0.237 c -0.942,-0.942 -1.57,-1.648 -1.885,-2.12 -0.472,-0.471 -0.628,-1.021 -0.472,-1.65 1.259,1.101 2.044,1.65 2.357,1.65 l 0.237,0 c 0.313,-0.629 1.022,-1.1 2.119,-1.415 0.159,0 0.787,0.628 1.887,1.887 l 0.707,0.706 0.706,-0.472 -0.706,-3.534 c 0.156,-0.629 0.391,-1.335 0.706,-2.122 0.628,-1.097 1.1,-1.647 1.413,-1.647 -0.156,1.413 -0.156,2.356 0,2.826 0.944,0.472 1.494,0.943 1.65,1.415 0.157,0.312 0.079,0.784 -0.234,1.413 l -0.707,1.885 0,0.236 c 1.098,0.942 2.041,1.413 2.826,1.413 0.472,0 0.944,-0.312 1.415,-0.941 l 1.178,-0.708 0.472,0.236 c -0.315,1.257 -0.237,4.241 0.235,8.954 l 0.472,5.42 c -0.157,0.787 0,1.335 0.471,1.651 l 0.235,0.471 c 0.316,0.313 0.55,1.022 0.707,2.119 0.156,1.259 0.156,2.044 0,2.357 l -1.413,1.415 c -0.157,0.157 -0.472,2.748 -0.944,7.776 0,7.226 -0.235,11.782 -0.706,13.667 l -0.707,1.885 0,0.237 0.472,0 0.706,-2.122 0.707,-7.069 0,-0.235 0.235,-0.471 c 2.515,-4.085 4.556,-6.913 6.128,-8.484 2.669,-2.828 5.498,-4.243 8.482,-4.243 1.1,0 2.122,0.159 3.063,0.472 4.401,1.728 6.678,4.713 6.835,8.954 0.156,1.572 -0.157,3.693 -0.943,6.363 -0.785,2.2 -1.413,4.085 -1.885,5.657 -0.785,2.2 -1.178,3.691 -1.178,4.476 l 0,0.236 7.776,3.536 0,0.471 c -1.413,-0.159 -2.907,0 -4.476,0.47 -1.416,0.472 -2.594,0.55 -3.535,0.236 l -0.237,0 0,0.942 11.076,4.95 -0.235,0.472 c -0.943,-0.316 -2.356,-0.316 -4.241,0 -2.2,0.469 -4.163,0.391 -5.891,-0.238 l -0.472,0 0.472,1.179 12.488,5.892 0,0.236 c -1.256,-0.315 -2.75,-0.315 -4.478,0 -1.569,0.47 -3.141,0.55 -4.712,0.235 l -0.707,-0.235 0.472,0.707 4.241,4.713 c 2.828,2.984 4.791,5.341 5.891,7.069 1.885,2.828 2.828,5.576 2.828,8.248 0.157,3.298 -0.787,5.969 -2.828,8.011 -2.041,2.043 -4.397,3.065 -7.069,3.065 -2.514,0 -4.713,-0.944 -6.598,-2.828 -1.729,-1.885 -2.435,-4.322 -2.122,-7.307 -1.569,-1.885 -2.906,-4.085 -4.006,-6.597 l 0.237,0 c 0.472,0.627 1.099,1.256 1.885,1.884 0.784,0.628 1.334,0.944 1.65,0.944 l 0.234,0 0,-2.122 c -0.313,-0.628 -1.178,-1.885 -2.591,-3.769 -3.143,-4.398 -4.95,-7.541 -5.419,-9.426 l 0.234,-0.236 c 0.785,1.413 3.535,3.848 8.248,7.305 1.885,1.256 3.219,2.357 4.006,3.3 0.472,1.098 0.472,2.434 0,4.004 l 0,0.472 0.942,0 0.472,-0.941 c 0.787,-1.728 1.256,-3.222 1.415,-4.478 l 0.234,0 c 0.157,0.314 0.316,1.256 0.472,2.828 0.313,1.569 0.472,2.747 0.472,3.534 l 0,0.235 c -0.787,1.885 -1.337,3.063 -1.65,3.535 -0.156,0.315 -0.629,0.55 -1.415,0.706 l -2.12,0.237 -0.237,0.235 c -0.313,1.728 0.08,3.222 1.178,4.478 1.1,1.257 2.672,1.885 4.714,1.885 2.199,0 4.006,-0.706 5.421,-2.122 0.628,-0.628 1.179,-1.413 1.648,-2.356 0.787,-2.041 0.787,-4.398 0,-7.069 -0.785,-2.198 -1.885,-4.085 -3.298,-5.655 -1.728,-1.728 -5.106,-4.4 -10.132,-8.012 -5.813,-3.77 -9.113,-7.542 -9.898,-11.312 -0.472,-2.356 -0.157,-4.869 0.941,-7.541 0.787,-1.569 2.122,-3.848 4.006,-6.832 1.416,-2.044 2.436,-3.693 3.063,-4.95 3.457,-5.027 4.322,-9.189 2.594,-12.49 -1.1,-2.356 -2.985,-3.534 -5.657,-3.534 -2.984,0 -5.497,1.572 -7.541,4.713 -0.784,1.257 -2.513,4.713 -5.182,10.369 -2.515,5.97 -4.243,9.346 -5.185,10.133 -0.156,0.472 -0.237,6.52 -0.237,18.146 l 0.237,2.826 0.235,0 1.415,-0.47 c 0,1.098 0.863,3.376 2.591,6.833 3.3,6.128 4.87,11.31 4.713,15.554 l 0.472,0.706 c 0.785,0.785 1.178,1.57 1.178,2.357 0,0.313 -0.078,0.628 -0.237,0.941 0,0.158 -0.469,0.315 -1.413,0.471 l -13.195,2.829 -3.535,-2.829 0.47,-2.591 c 0.158,-0.315 0.393,-0.706 0.709,-1.178 l 0.941,-0.943 -0.235,0 -1.178,-1.885 1.885,-0.235 c 2.041,0 3.063,-0.08 3.063,-0.237 l 0,-0.235 c -0.313,-0.787 -0.551,-1.256 -0.707,-1.415 -0.315,-0.313 -0.863,-0.47 -1.65,-0.47 -2.513,-0.314 -4.869,-1.021 -7.07,-2.121 -2.041,-1.256 -4.712,-3.3 -8.01,-6.126 -0.628,-0.472 -1.259,-2.515 -1.887,-6.128 -0.47,-2.67 -0.785,-4.319 -0.941,-4.948 l 0.706,0 c 0.629,0.156 1.178,0.156 1.65,0 l 0.235,-0.237 C 14.058,15.16 11.702,10.763 6.833,2.121 l -0.707,-1.178 -0.235,0 c -0.472,0 -0.865,0.235 -1.178,0.706 l -0.237,0.707 0,3.772 C 4.476,6.6 4.241,7.069 3.77,7.541 L 3.063,8.956 2.119,9.897 C 1.806,10.213 1.413,10.369 0.941,10.369 L 1.178,9.897 C 1.647,9.426 1.963,8.719 2.119,7.778 1.491,6.991 1.098,6.362 0.941,5.891 L 0.707,5.422 2.119,3.065 c 0,-0.472 -0.156,-0.709 -0.472,-0.709 -0.469,0 -1.256,0.55 -2.356,1.65 l 0,24.744 2.594,-1.651 0,-0.234 -0.944,-1.178 c 0,-0.157 0.079,-0.235 0.237,-0.235 l 1.648,-0.237 c 0.158,0 2.043,-1.57 5.656,-4.713 l 2.829,-2.356 0.471,2.121 c 0.313,2.2 0.629,3.848 0.942,4.948 l -4.476,2.121 c -2.044,0.942 -3.222,1.807 -3.535,2.592 l -0.709,0 c -0.628,0.156 -1.098,0.393 -1.413,0.706 l -0.235,0.237 0.235,0.235 c 1.1,1.415 1.728,2.356 1.885,2.828 0.315,0.316 0.393,0.785 0.237,1.413 l 0,1.887 C 4.554,38.332 4.241,38.962 3.77,39.119 l 0,-0.944 C 3.613,37.075 3.376,36.447 3.063,36.291 L 1.178,35.584 c 0,-0.156 -0.237,-1.178 -0.709,-3.063 l 0,-0.237 -0.235,0 -0.943,0.472 0,7.069 z m 29.693,41.474 -0.471,0 c -0.316,0.159 -0.707,0.237 -1.179,0.237 -0.628,0 -1.178,-0.078 -1.65,-0.237 l -0.234,0 -0.238,-0.235 c -0.941,-0.157 -1.569,-0.628 -1.884,-1.413 -0.472,-1.415 0.393,-3.222 2.593,-5.422 l 0.235,-0.234 -0.706,-0.707 -0.238,0.234 c -1.728,1.885 -3.219,2.829 -4.476,2.829 -0.786,0 -1.415,-0.393 -1.884,-1.178 -0.315,-0.785 -0.472,-1.651 -0.472,-2.591 0,-1.101 0.157,-2.044 0.472,-2.829 0.469,-0.787 1.098,-1.178 1.884,-1.178 1.257,0 2.748,0.941 4.476,2.828 l 0.238,0.235 0.706,-0.706 c -0.315,-0.787 -0.863,-1.966 -1.65,-3.535 -0.941,-1.729 -1.806,-2.907 -2.591,-3.535 -3.3,-1.1 -6.363,-1.1 -9.191,0 -0.629,0.472 -1.413,1.491 -2.357,3.063 -1.1,1.572 -1.728,2.75 -1.885,3.535 l 0.707,0.706 0.237,-0.234 c 1.569,-1.572 2.907,-2.357 4.004,-2.357 1.572,0 2.357,1.178 2.357,3.535 0,2.356 -0.785,3.535 -2.357,3.535 -1.097,0 -2.435,-0.788 -4.004,-2.357 l -0.237,0 -0.707,0.707 0.235,0 c 1.887,2.041 2.594,3.691 2.122,4.947 -0.472,0.944 -1.178,1.494 -2.122,1.65 l -0.235,0 c -0.471,0.157 -0.943,0.237 -1.413,0.237 l -0.709,0 c -0.469,0 -1.019,-0.159 -1.647,-0.472 l -0.237,0 C 3.848,80.042 3.454,79.57 3.297,78.942 2.826,77.686 3.535,76.036 5.419,73.995 l 0.235,0 -0.706,-0.707 -0.235,0 c -1.572,1.569 -2.907,2.357 -4.006,2.357 -0.788,0 -1.416,-0.394 -1.885,-1.179 -0.472,-0.628 -0.709,-1.415 -0.709,-2.356 0,-0.944 0.237,-1.729 0.709,-2.357 0.469,-0.787 1.097,-1.178 1.885,-1.178 1.099,0 2.434,0.785 4.006,2.357 l 0.235,0.234 0.706,-0.706 -0.235,0 C 5.263,69.675 4.791,68.575 4.004,67.16 3.219,65.432 2.513,64.334 1.885,63.862 c -1.416,-0.628 -3.063,-0.944 -4.95,-0.944 -1.885,0 -3.455,0.316 -4.713,0.944 -0.47,0.313 -1.179,1.1 -2.12,2.356 -0.943,1.413 -1.572,2.513 -1.885,3.298 l -0.237,0.237 0.707,0.707 0.237,-0.235 c 1.728,-1.728 3.22,-2.594 4.476,-2.594 1.728,0 2.593,1.257 2.593,3.772 0,0.941 -0.156,1.728 -0.472,2.357 -0.471,0.784 -1.178,1.178 -2.121,1.178 -1.256,0 -2.748,-0.865 -4.476,-2.594 l -0.237,-0.234 -0.707,0.941 0.237,0 c 1.413,1.887 1.807,3.378 1.179,4.478 -0.472,0.785 -1.416,1.257 -2.829,1.413 -0.943,0.159 -1.806,0.159 -2.593,0 -0.47,-0.156 -0.941,-0.313 -1.413,-0.469 0.628,-1.728 1.493,-5.029 2.591,-9.898 1.259,-5.028 2.044,-8.72 2.357,-11.076 l 79.414,0 c 0.315,2.356 1.1,6.048 2.356,11.076 1.257,4.869 2.122,8.17 2.594,9.898 -0.472,0.156 -0.944,0.313 -1.415,0.469 -0.941,0.159 -1.807,0.159 -2.592,0 -1.415,-0.156 -2.356,-0.628 -2.828,-1.413 -0.628,-1.1 -0.235,-2.591 1.178,-4.478 l 0.235,0 -0.706,-0.941 -0.235,0.234 c -1.728,1.729 -3.222,2.594 -4.478,2.594 -0.785,0 -1.413,-0.315 -1.885,-0.943 -0.472,-0.785 -0.707,-1.651 -0.707,-2.592 0,-2.515 0.863,-3.772 2.592,-3.772 1.256,0 2.75,0.866 4.478,2.594 l 0.235,0.235 0.706,-0.707 0,-0.237 c -0.47,-0.785 -1.178,-1.885 -2.119,-3.298 -0.944,-1.256 -1.572,-2.043 -1.885,-2.356 -3.3,-1.257 -6.52,-1.257 -9.663,0 -0.628,0.472 -1.413,1.57 -2.357,3.298 -0.784,1.415 -1.256,2.515 -1.412,3.3 l 0.471,0.706 0.235,-0.234 c 1.571,-1.572 2.906,-2.357 4.007,-2.357 1.728,0 2.591,1.178 2.591,3.535 0,2.356 -0.863,3.535 -2.591,3.535 -1.101,0 -2.436,-0.788 -4.007,-2.357 l -0.235,0 -0.709,0.707 0.238,0 c 2.041,2.199 2.747,3.849 2.119,4.947 -0.156,0.787 -0.628,1.259 -1.413,1.415 l -0.235,0.235 c -0.944,0.315 -2.122,0.315 -3.534,0 l -0.473,0 c -0.786,-0.313 -1.334,-0.863 -1.649,-1.65 -0.628,-1.098 0.078,-2.748 2.122,-4.947 l 0.234,0 -0.943,-0.707 c -1.57,1.569 -2.907,2.357 -4.005,2.357 -0.786,0 -1.493,-0.394 -2.121,-1.179 -0.316,-0.628 -0.472,-1.415 -0.472,-2.356 0,-0.944 0.156,-1.729 0.472,-2.357 0.628,-0.787 1.335,-1.178 2.121,-1.178 1.098,0 2.435,0.785 4.005,2.357 l 0,0.234 0.709,-0.706 c -0.16,-0.785 -0.629,-1.885 -1.416,-3.3 -0.941,-1.728 -1.728,-2.826 -2.356,-3.298 -3.141,-1.1 -6.283,-1.1 -9.426,0 -0.785,0.628 -1.65,1.806 -2.591,3.535 -0.944,1.413 -1.494,2.591 -1.65,3.535 l 0.706,0.706 0,-0.235 c 1.728,-1.887 3.222,-2.828 4.478,-2.828 0.785,0 1.413,0.391 1.885,1.178 0.472,0.785 0.707,1.728 0.707,2.829 0,0.94 -0.235,1.806 -0.707,2.591 -0.472,0.785 -1.1,1.178 -1.885,1.178 -1.256,0 -2.75,-0.944 -4.478,-2.829 l 0,-0.234 -0.941,0.707 0.235,0.234 c 2.356,2.356 3.219,4.163 2.591,5.422 -0.313,0.785 -0.941,1.335 -1.885,1.648 l -0.235,0 z m 0.472,10.135 c -0.315,0 -0.787,-0.081 -1.415,-0.238 l -1.179,0 c -0.471,0 -1.099,0.157 -1.884,0.472 l 0,-0.234 0.234,-2.122 0,-0.472 0.472,-7.069 c 1.1,0.314 2.2,0.314 3.3,0 l 0.472,9.663 z m 3.298,2.59 c 1.1,1.101 1.806,2.279 2.121,3.536 l -15.317,0 c 0.313,-1.414 1.022,-2.592 2.12,-3.536 0.943,-0.943 2.043,-1.571 3.3,-1.884 C 25.293,91.983 26,91.825 27.1,91.668 l 0.469,0 1.178,0.235 c 0.316,0 0.55,0.08 0.709,0.237 l 0.469,0 c 1.1,0.472 2.044,1.1 2.829,1.884 m 18.38,-4.712 2.594,0 c 4.556,0 7.619,-0.079 9.189,-0.235 2.199,-0.315 3.615,-0.866 4.243,-1.65 0.469,-0.628 0.628,-1.65 0.469,-3.063 -0.156,-0.787 -0.469,-2.437 -0.941,-4.95 0.941,0.315 2.12,0.315 3.535,0 l 0,0.237 c 0.628,2.669 1.1,4.554 1.413,5.654 l 0,0.472 c -0.016,1.337 -0.094,2.359 -0.235,3.063 -0.156,0.157 -0.315,0.315 -0.472,0.472 -0.784,0.943 -2.512,1.649 -5.184,2.122 l -0.707,0 -0.943,0 c -2.67,0.313 -7.148,0.469 -13.43,0.469 0.313,-0.469 0.469,-1.335 0.469,-2.591 m -0.707,-5.657 c 6.285,-1.413 10.998,-3.534 14.139,-6.361 l 0,0.47 c 0.157,0.159 0.316,0.315 0.472,0.472 0.157,0.472 0.55,0.787 1.178,0.943 0.472,2.357 0.785,4.007 0.944,4.948 0.156,1.415 0,2.435 -0.472,3.063 -0.628,0.628 -1.965,1.1 -4.006,1.415 -1.572,0.157 -4.557,0.235 -8.954,0.235 l -2.594,0 c 0,-0.942 -0.235,-2.278 -0.707,-4.007 l 0,-1.178 z m -8.482,6.363 c -2.357,0 -6.363,-0.391 -12.02,-1.178 l -0.234,-3.063 c 6.126,-0.156 11.547,-0.629 16.261,-1.413 0.313,2.669 0.234,4.241 -0.238,4.713 -0.471,0.628 -1.728,0.941 -3.769,0.941 m 8.482,1.178 c -0.156,0.316 -0.313,0.551 -0.471,0.707 -0.785,0.787 -2.748,1.178 -5.892,1.178 -2.513,-0.156 -7.226,-0.628 -14.139,-1.413 l 0,-2.122 c 6.442,0.629 10.448,0.944 12.02,0.944 2.041,0 3.456,-0.315 4.241,-0.944 0.472,-0.784 0.55,-2.513 0.235,-5.182 l 0,-1.178 -0.469,-2.122 1.647,0.235 1.887,-0.235 0.47,3.769 c 0.158,0.315 0.237,0.628 0.237,0.944 0.016,0.147 0.016,0.304 0,0.472 0.172,1.164 0.331,2.029 0.472,2.591 l 0,0.943 c 0,0.629 -0.081,1.1 -0.238,1.413 m -15.317,8.485 0,1.413 0,0.472 -6.126,0 0,5.891 -1.65,0.235 -1.884,-0.235 0,-5.891 -5.892,0 -0.237,-1.885 0,-1.178 0,-0.472 15.789,0 c 0.157,0.785 0.157,1.335 0,1.65 m -5.654,7.539 0,-5.182 5.419,0 c -0.315,0.941 -0.787,1.806 -1.415,2.591 -0.941,1.256 -2.276,2.121 -4.004,2.591 M -26.159,39.354 c -0.313,5.656 -0.471,11.625 -0.471,17.91 l 0,0.235 13.432,0 0.237,0 0,0.472 c -0.472,2.356 -1.259,5.813 -2.356,10.367 -1.259,5.341 -2.2,8.72 -2.829,10.135 l 0,0.235 0.235,0 c 0.472,0.315 1.022,0.549 1.65,0.706 -0.784,2.984 -1.178,5.028 -1.178,6.128 -0.315,1.885 -0.078,3.298 0.707,4.241 0.786,1.1 2.593,1.807 5.419,2.12 2.043,0.159 6.207,0.315 12.491,0.472 l 3.063,0 c 0.941,0.787 2.592,1.178 4.948,1.178 2.671,0 7.306,-0.391 13.904,-1.178 -0.628,0.315 -1.257,0.787 -1.885,1.415 -1.1,1.098 -1.806,2.356 -2.122,3.77 l 0,0.234 c -0.156,0.628 -0.234,1.259 -0.234,1.887 0,0.629 0.078,1.257 0.234,1.885 l 0,0.472 c 0.316,0.941 0.785,1.884 1.414,2.826 1.258,1.415 2.75,2.437 4.478,3.065 l 0,5.891 -4.478,0 0,4.242 4.478,0 0,4.947 4.478,0 0,-4.947 4.476,0 0,-4.242 -4.476,0 0,-5.891 c 1.885,-0.628 3.376,-1.65 4.476,-3.065 1.256,-1.57 1.885,-3.298 1.885,-5.183 0,-2.356 -0.863,-4.322 -2.591,-5.891 -0.629,-0.628 -1.257,-1.178 -1.885,-1.65 6.282,0.941 10.604,1.413 12.96,1.413 2.829,0 4.792,-0.391 5.892,-1.178 7.225,0 12.173,-0.157 14.845,-0.472 3.3,-0.313 5.42,-1.098 6.363,-2.357 0.628,-0.784 0.863,-2.041 0.706,-3.769 -0.156,-1.1 -0.628,-3.219 -1.412,-6.363 0.628,-0.157 1.178,-0.391 1.647,-0.706 l 0.237,0 0,-0.235 c -0.628,-1.572 -1.571,-4.951 -2.828,-10.135 -1.1,-4.713 -1.885,-8.167 -2.356,-10.367 l 0,-0.472 0.471,0 13.196,0 0,-0.235 c 0,-6.285 -0.079,-12.254 -0.235,-17.91 C 80.67,39.041 80.59,38.725 80.59,38.413 79.649,17.517 77.055,0.865 72.814,-11.546 c -1.256,-3.612 -2.669,-7.147 -4.241,-10.604 -0.156,-0.157 -0.315,-0.315 -0.472,-0.472 -3.456,-7.069 -7.698,-13.745 -12.724,-20.03 -0.071,-0.072 -0.149,-0.15 -0.236,-0.235 -0.07,-0.142 -0.15,-0.299 -0.235,-0.471 -7.542,-8.955 -16.733,-17.124 -27.572,-24.509 l -0.234,0 c -10.842,7.385 -20.031,15.554 -27.572,24.509 -0.088,0.172 -0.166,0.329 -0.237,0.471 l -0.235,0.235 c -5.028,6.285 -9.269,12.961 -12.725,20.03 -0.157,0.157 -0.235,0.315 -0.235,0.472 -1.729,3.457 -3.22,6.992 -4.479,10.604 -4.241,12.255 -6.832,28.906 -7.776,49.959 l 0,0.941 z M 19.558,26.63 c -0.472,-0.316 -1.334,-1.494 -2.593,-3.535 l -1.648,-2.593 0,-0.235 -0.472,0 0,0.235 1.65,2.593 c 1.257,2.198 2.198,3.535 2.826,4.004 0.629,0.316 2.044,0.55 4.244,0.709 0.469,0.157 1.178,0.235 2.119,0.235 l 0.707,0 -0.47,-0.472 -2.356,-0.235 C 21.521,27.18 20.187,26.943 19.558,26.63 m 9.426,90.959 0,4.948 -3.534,0 0,-4.948 -4.479,0 0,-3.299 4.479,0 0,-6.361 1.884,0.235 1.65,-0.235 0,6.361 4.476,0 0,3.299 -4.476,0 z"
         style="fill:#e32f36;fill-opacity:1;fill-rule:evenodd;stroke:none"
         id="path26"
         inkscape:connector-curvature="0" /></g><g
       id="g28"
       transform="translate(61.032746,68.48476)"><path
         d="M 0,0 C 3.457,-7.069 7.698,-13.745 12.726,-20.03 L 12.96,-20.265 6.834,-26.393 -9.896,-9.66 0,0 z m 13.669,22.622 c -0.315,0 -0.55,-0.078 -0.709,-0.235 l 0,-1.65 0.238,-0.235 c 0.628,0 1.334,0.392 2.119,1.179 l -0.234,0.706 -1.414,0.235 z M -6.126,-18.146 c -6.126,5.814 -12.254,11.155 -18.38,16.025 l 4.006,4.243 c 3.142,-4.085 6.52,-8.091 10.133,-12.019 L 6.6,-26.864 c 4.085,-3.614 8.089,-6.99 12.017,-10.133 l -4.007,-4.007 c -5.497,6.913 -10.917,13.042 -16.258,18.383 l -0.237,0.234 -27.099,-27.099 0.236,-0.235 c 0.629,-2.356 0.079,-4.4 -1.649,-6.128 -1.257,-1.256 -2.75,-1.884 -4.479,-1.884 -1.728,0 -3.219,0.628 -4.476,1.884 -1.258,1.256 -1.887,2.75 -1.887,4.478 0,1.728 0.629,3.22 1.887,4.476 1.885,1.572 4.004,2.043 6.361,1.416 l 27.099,27.099 -0.234,0.234 z m 39.354,67.398 c 0.628,0.313 1.963,0.55 4.006,0.706 l 2.357,0.235 0.469,0.472 -0.706,0 c -0.941,0 -1.65,-0.078 -2.12,-0.235 -2.2,-0.159 -3.615,-0.393 -4.243,-0.709 -0.629,-0.469 -1.57,-1.806 -2.826,-4.004 l -1.65,-2.593 0,-0.235 0.471,0 0,0.235 1.648,2.593 c 1.259,2.041 2.122,3.22 2.594,3.535 M -12.489,61.976 C -22.856,74.073 -32.363,88.84 -41.002,106.277 -25.921,98.895 -12.096,90.175 0.472,80.121 l -13.433,0 0,-0.235 c 0,-6.284 0.159,-12.254 0.472,-17.91 m 47.367,1.649 c 0.156,0.157 0.313,0.235 0.469,0.235 0.629,-0.469 1.022,-0.706 1.178,-0.706 0.316,0 1.494,-0.078 3.535,-0.235 l 0.944,-0.943 c -2.829,0 -4.398,0.078 -4.713,0.237 -0.472,0 -0.944,0.234 -1.413,0.706 -0.159,0.157 -0.159,0.392 0,0.706 m 6.36,2.829 0,0.234 -0.234,-0.234 -0.944,-0.472 -0.234,-0.234 0.234,-0.472 0.237,0 c 0.472,0 0.863,0.156 1.179,0.472 0,0.156 -0.079,0.391 -0.238,0.706 m -23.799,48.071 c -0.472,-0.629 -0.707,-1.491 -0.707,-2.591 l -3.534,0 c -4.085,0 -6.835,-0.079 -8.248,-0.235 -1.885,-0.315 -3.144,-0.866 -3.772,-1.65 -0.47,-0.628 -0.706,-1.572 -0.706,-2.828 0.156,-1.1 0.549,-2.828 1.178,-5.185 -0.629,0.156 -1.335,0.237 -2.12,0.237 l -1.65,-0.237 c -0.943,3.613 -1.335,6.285 -1.178,8.013 l 0,0.941 c 0.156,0.472 0.313,0.787 0.472,0.944 0.784,1.1 2.669,1.806 5.654,2.122 2.044,0.156 6.048,0.313 12.02,0.469 l 2.591,0 z m 21.208,15.317 0,-5.182 -5.419,0 c 0.313,0.784 0.784,1.648 1.413,2.591 1.1,1.413 2.434,2.278 4.006,2.591 M 17.321,110.755 c -0.016,1.446 0.102,2.546 0.352,3.301 0.16,0.156 0.238,0.313 0.238,0.469 l 0.234,0 0,0.237 c 0.628,0.472 1.729,0.785 3.3,0.941 l 0.707,0 0.706,0 2.829,0 c 2.984,-0.313 7.147,-0.785 12.488,-1.413 l 0,-2.122 -0.471,0 c -5.97,0.629 -9.739,0.944 -11.311,0.944 -2.356,0.157 -3.848,-0.156 -4.476,-0.944 -0.628,-0.628 -0.787,-2.275 -0.472,-4.947 0,-0.629 0.078,-1.179 0.235,-1.65 l 0.237,-1.65 c -1.1,0.159 -2.2,0.08 -3.3,-0.235 l -0.472,2.591 0,0.237 c -0.312,1.257 -0.55,2.278 -0.706,3.063 -0.03,0.384 -0.069,0.739 -0.118,1.061 l 0,0.117 z M 83.655,-22.387 83.42,-22.621 c -5.341,-5.341 -10.76,-11.47 -16.26,-18.383 l -4.004,4.007 c 3.926,3.143 7.932,6.519 12.017,10.133 l 8.719,8.247 c 1.885,1.888 4.635,4.794 8.248,8.72 l 0.235,0.237 c 3.456,3.926 6.756,7.854 9.897,11.782 l 4.007,-4.243 C 100.31,-6.834 94.181,-12.176 87.899,-18.146 l -0.237,-0.234 27.099,-27.099 0.238,0 c 2.197,0.627 4.241,0.156 6.126,-1.416 1.256,-1.256 1.884,-2.748 1.884,-4.476 0,-1.728 -0.628,-3.222 -1.884,-4.478 -1.257,-1.256 -2.75,-1.884 -4.479,-1.884 -1.728,0 -3.219,0.628 -4.476,1.884 -1.728,1.728 -2.2,3.772 -1.415,6.128 l 0,0.235 -27.1,27.099 z m -14.845,2.122 c 0.087,0.085 0.166,0.163 0.237,0.235 5.026,6.285 9.267,12.961 12.724,20.03 l 9.897,-9.66 -8.248,-8.486 c -1.884,-2.041 -3.928,-4.083 -6.126,-6.125 -0.787,-0.787 -1.571,-1.494 -2.356,-2.122 l -6.128,6.128 z m 12.019,87.897 c 2.357,-0.944 4.004,-2.593 4.948,-4.95 -0.472,0.943 -1.1,1.807 -1.885,2.594 -0.943,0.941 -1.965,1.728 -3.063,2.356 m -28.986,5.185 0.237,0 c 0.784,0 1.178,-0.316 1.178,-0.943 0,-0.473 -0.156,-0.785 -0.472,-0.944 -0.472,-0.157 -0.863,0 -1.178,0.471 l -0.235,0 c -0.159,0 -0.237,-0.078 -0.237,-0.234 L 50.901,70.93 c 0.472,-0.785 0.863,-1.257 1.179,-1.413 0.313,-0.157 0.784,-0.393 1.413,-0.706 0.943,-0.157 1.884,0 2.828,0.471 l 0,0.707 -0.472,0 c -0.472,0 -0.863,0.156 -1.178,0.471 -0.157,0.313 -0.078,0.629 0.237,0.941 0.156,0.473 0.469,0.629 0.941,0.473 0.316,0 0.629,-0.235 0.943,-0.707 l 0.235,-0.237 0.237,0.237 c 0.629,0.472 1.257,0.55 1.885,0.234 l -3.3,-4.241 -12.489,3.063 -0.943,5.42 c 0.787,0 1.258,-0.392 1.415,-1.179 l 0.235,-0.234 0.237,0 c 0.469,0.315 0.941,0.394 1.413,0.234 0.315,-0.156 0.471,-0.469 0.471,-0.941 0,-0.787 -0.237,-1.178 -0.706,-1.178 -0.315,0 -0.709,0.156 -1.178,0.472 l -0.472,-0.237 0,-0.235 c 0.472,-0.944 1.335,-1.572 2.591,-1.885 l 0.944,0 c 0.628,0 1.334,0.235 2.119,0.707 l 0,0.707 -0.469,0 c -0.629,-0.316 -1.022,-0.235 -1.179,0.234 -0.158,0.315 -0.158,0.709 0,1.178 0.47,0.472 0.942,0.472 1.413,0 l 0.235,0 0.237,0.237 c 0.157,0.472 0.55,0.707 1.178,0.707 0.629,-0.157 0.942,-0.55 0.942,-1.178 l 0,-0.235 z m -6.126,2.12 c 0.175,-0.019 0.333,-0.097 0.471,-0.235 l -0.237,0 c 0,0.138 -0.078,0.216 -0.234,0.235 m -1.65,-6.833 0.237,-0.237 C 43.988,67.71 43.832,67.554 43.832,67.395 l 0.235,-0.707 c 0.315,-0.313 0.628,-0.471 0.943,-0.471 0.941,-0.156 1.413,0.158 1.413,0.943 l 0,0.235 c 0.944,-0.156 1.806,-0.391 2.594,-0.707 l 0.469,-0.471 -0.235,0.709 -0.234,0.469 -5.185,1.178 C 43.045,68.104 42.576,67.71 42.417,67.395 l 0,-0.235 0.237,0 0.706,0.235 0.707,0.709 z m 3.062,-6.363 c -0.312,0.785 -0.549,1.178 -0.706,1.178 -0.472,0.157 -1.806,0.235 -4.006,0.235 l -0.707,0 0,-0.235 c 0,-0.472 0.237,-0.943 0.707,-1.415 l 4.712,0 0,0.237 z m 7.542,3.535 0.237,-0.237 c 0.313,0.158 0.785,0.237 1.413,0.237 0.157,-0.316 0,-0.707 -0.472,-1.179 -0.156,0 -0.313,-0.156 -0.472,-0.472 l 0,-0.943 0.944,1.178 c 0.628,0.472 0.863,1.1 0.706,1.888 -0.784,0.313 -1.569,0.234 -2.356,-0.238 l 0,-0.234 z m -43.83,-2.829 2.119,0 0,-7.069 0.944,-0.472 0.235,0 0,0.237 c 0.471,1.885 0.709,2.907 0.709,3.063 l 1.884,0.707 c 0.313,0.156 0.55,0.784 0.707,1.884 l 0,0.944 c 0.472,-0.157 0.785,-0.787 0.943,-1.885 l 0,-1.887 c 0.157,-0.628 0.078,-1.097 -0.237,-1.413 -0.156,-0.472 -0.785,-1.413 -1.884,-2.828 l -0.235,-0.235 0.235,-0.237 c 0.315,-0.313 0.784,-0.55 1.412,-0.706 l 0.709,0 c 0.313,-0.785 1.492,-1.65 3.535,-2.592 l 4.476,-2.121 c -0.313,-1.1 -0.628,-2.748 -0.941,-4.948 l -0.472,-2.121 -2.828,2.356 c -3.613,3.143 -5.498,4.713 -5.657,4.713 l -1.647,0.237 c -0.159,0 -0.238,0.078 -0.238,0.235 l 0.944,1.178 0,0.234 -2.594,1.651 0,-24.744 c 1.101,-1.1 1.888,-1.649 2.357,-1.649 0.315,0 0.472,0.236 0.472,0.709 l -1.413,2.356 0.234,0.469 c 0.157,0.471 0.551,1.1 1.179,1.887 -0.157,0.941 -0.472,1.648 -0.941,2.12 l -0.238,0.471 c 0.473,0 0.866,-0.156 1.179,-0.471 l 0.943,-0.942 0.707,-1.415 c 0.472,-0.472 0.706,-0.941 0.706,-1.413 l 0,-3.771 0.237,-0.708 c 0.313,-0.471 0.707,-0.706 1.179,-0.706 l 0.234,0 0.707,1.178 c 4.869,8.642 7.226,13.039 7.069,13.196 l -0.235,0.237 c -0.471,0.156 -1.021,0.156 -1.649,0 l -0.707,0 c 0.157,0.629 0.472,2.278 0.941,4.948 0.628,3.613 1.259,5.656 1.887,6.128 3.298,2.826 5.97,4.87 8.011,6.126 2.2,1.1 4.556,1.807 7.069,2.122 0.787,0 1.335,0.156 1.651,0.469 0.156,0.159 0.393,0.628 0.706,1.415 l 0,0.235 c 0,0.157 -1.022,0.237 -3.063,0.237 l -1.885,0.235 1.179,1.885 0.234,0 -0.941,0.943 c -0.315,0.472 -0.55,0.863 -0.709,1.178 l -0.469,2.591 3.534,2.829 13.196,-2.829 c 0.943,-0.156 1.413,-0.313 1.413,-0.471 0.159,-0.313 0.237,-0.628 0.237,-0.941 0,-0.787 -0.394,-1.572 -1.179,-2.357 L 56.321,62.213 C 56.478,57.969 54.908,52.787 51.608,46.659 49.88,43.202 49.017,40.924 49.017,39.826 l -1.415,0.47 -0.235,0 -0.238,-2.826 c 0,-11.626 0.081,-17.674 0.238,-18.146 0.941,-0.787 2.669,-4.163 5.184,-10.133 2.67,-5.656 4.398,-9.112 5.183,-10.369 2.043,-3.141 4.557,-4.713 7.541,-4.713 2.672,0 4.557,1.178 5.657,3.535 1.728,3.3 0.862,7.462 -2.594,12.489 -0.628,1.257 -1.648,2.906 -3.063,4.95 -1.885,2.984 -3.219,5.263 -4.006,6.832 -1.098,2.672 -1.414,5.185 -0.942,7.541 0.785,3.77 4.085,7.542 9.898,11.312 5.026,3.612 8.404,6.284 10.132,8.012 1.414,1.57 2.514,3.457 3.298,5.655 0.787,2.671 0.787,5.028 0,7.069 -0.469,0.943 -1.019,1.728 -1.648,2.356 -1.415,1.416 -3.221,2.122 -5.421,2.122 -2.042,0 -3.613,-0.628 -4.713,-1.885 -1.098,-1.256 -1.492,-2.75 -1.179,-4.478 l 0.238,-0.235 2.119,-0.237 c 0.787,-0.156 1.259,-0.391 1.415,-0.706 0.313,-0.472 0.863,-1.65 1.65,-3.535 l 0,-0.235 c 0,-0.787 -0.158,-1.965 -0.471,-3.534 -0.157,-1.572 -0.316,-2.513 -0.472,-2.828 l -0.235,0 c -0.159,1.256 -0.628,2.75 -1.415,4.478 l -0.472,0.941 -0.941,0 0,-0.472 c 0.472,-1.569 0.472,-2.906 0,-4.004 -0.787,-0.943 -2.122,-2.044 -4.006,-3.3 -4.714,-3.457 -7.464,-5.891 -8.249,-7.305 l -0.234,0.236 c 0.469,1.885 2.276,5.028 5.42,9.426 1.412,1.884 2.278,3.141 2.59,3.769 l 0,2.122 -0.234,0 c -0.315,0 -0.865,-0.316 -1.65,-0.944 C 64.962,52.628 64.334,52 63.862,51.372 l -0.237,0 c 1.1,2.512 2.437,4.712 4.006,6.597 -0.312,2.985 0.394,5.422 2.122,7.307 1.885,1.884 4.085,2.828 6.598,2.828 2.672,0 5.028,-1.022 7.069,-3.065 2.042,-2.041 2.985,-4.713 2.829,-8.011 0,-2.672 -0.944,-5.42 -2.829,-8.248 -1.1,-1.728 -3.063,-4.085 -5.891,-7.069 l -4.241,-4.713 -0.472,-0.707 0.707,0.235 c 1.572,0.315 3.144,0.235 4.713,-0.235 1.728,-0.315 3.222,-0.315 4.478,0 l 0,-0.236 -12.489,-5.892 -0.472,-1.179 0.472,0 c 1.728,0.629 3.692,0.707 5.891,0.238 1.885,-0.316 3.298,-0.316 4.241,0 l 0.235,-0.472 -11.076,-4.95 0,-0.942 0.237,0 c 0.941,0.314 2.12,0.236 3.535,-0.236 1.569,-0.47 3.063,-0.629 4.476,-0.47 l 0,-0.471 -7.776,-3.535 0,-0.237 c 0,-0.785 0.393,-2.276 1.179,-4.476 0.471,-1.572 1.099,-3.456 1.884,-5.657 0.787,-2.67 1.1,-4.791 0.944,-6.363 -0.157,-4.241 -2.435,-7.226 -6.835,-8.954 -0.941,-0.313 -1.963,-0.472 -3.063,-0.472 -2.985,0 -5.813,1.415 -8.483,4.243 -1.572,1.571 -3.613,4.399 -6.128,8.484 l -0.235,0.472 0,0.234 -0.706,7.069 -0.707,2.122 -0.471,0 0,-0.237 0.706,-1.885 c 0.472,-1.885 0.707,-6.441 0.707,-13.667 0.471,-5.028 0.787,-7.619 0.943,-7.776 l 1.413,-1.415 c 0.156,-0.313 0.156,-1.098 0,-2.357 -0.157,-1.097 -0.391,-1.806 -0.706,-2.119 l -0.235,-0.471 c -0.472,-0.316 -0.628,-0.864 -0.472,-1.651 l -0.472,-5.42 c -0.471,-4.713 -0.55,-7.697 -0.234,-8.954 l -0.472,-0.236 -1.178,0.708 c -0.472,0.629 -0.944,0.941 -1.416,0.941 -0.784,0 -1.728,-0.471 -2.826,-1.413 l 0,-0.236 0.707,-1.885 c 0.313,-0.629 0.391,-1.101 0.235,-1.413 -0.157,-0.472 -0.707,-0.943 -1.65,-1.415 -0.157,-0.47 -0.157,-1.413 0,-2.826 -0.313,0 -0.785,0.55 -1.413,1.647 -0.316,0.787 -0.55,1.493 -0.707,2.122 l 0.707,3.534 -0.707,0.472 -0.706,-0.706 c -1.1,-1.259 -1.729,-1.887 -1.887,-1.887 -1.098,0.315 -1.807,0.787 -2.12,1.415 l -0.237,0 c -0.313,0 -1.097,-0.549 -2.356,-1.65 -0.157,0.629 0,1.179 0.471,1.65 0.316,0.472 0.944,1.178 1.885,2.12 l 0.472,0.237 3.535,0.706 0.237,0.707 -0.237,0.236 c -2.041,0.785 -3.142,1.413 -3.298,1.885 0,0.941 0.235,1.65 0.707,2.12 l 0,0.237 c -0.316,0.472 -1.1,1.256 -2.357,2.357 0.628,0.312 1.728,0.078 3.298,-0.707 0.471,-0.472 1.022,-0.787 1.65,-0.943 l 0.706,-1.885 c 0.628,-1.415 1.022,-2.122 1.178,-2.122 0.159,-0.157 0.316,-0.235 0.472,-0.235 0.628,0 1.335,0.235 2.122,0.706 0.628,1.413 0.628,4.32 0,8.72 -0.315,3.142 -0.707,5.654 -1.178,7.541 -0.472,1.257 -1.966,3.142 -4.479,5.654 -3.297,3.144 -5.419,5.736 -6.362,7.777 l 0,0.709 c -0.47,2.669 -0.551,4.397 -0.235,5.181 0.628,1.101 1.884,2.438 3.769,4.007 2.672,2.357 4.635,4.95 5.891,7.777 l 0,0.236 -0.469,0 C 39.669,17.989 37.784,15.553 35.112,13.196 33.228,11.468 31.893,9.977 31.106,8.72 30.793,7.776 30.871,5.97 31.343,3.301 l 0,-0.945 c 0.785,-1.727 1.806,-3.218 3.063,-4.477 -0.315,-0.785 -0.787,-1.569 -1.415,-2.357 -0.942,-1.413 -1.335,-2.748 -1.178,-4.004 l -2.357,-0.944 c -0.941,-0.471 -1.569,-0.706 -1.885,-0.706 -0.313,0 -0.941,0.313 -1.884,0.942 l -0.707,0.708 c -2.043,0.313 -4.322,0.785 -6.835,1.413 -1.884,0.629 -3.535,0.943 -4.947,0.943 l -1.178,0 c -0.157,0 -0.316,0.157 -0.473,0.47 l 0.707,0.471 c 0.628,0.629 0.944,1.179 0.944,1.651 0,0.471 -0.394,1.335 -1.178,2.591 l -0.238,0.237 -0.469,-0.472 c -0.787,-0.471 -1.337,-0.785 -1.65,-0.943 -0.315,0 -0.944,0.08 -1.885,0.236 l -0.472,0 -1.415,0.473 c -0.628,0.312 -1.019,0.706 -1.178,1.178 0.943,-0.16 1.65,-0.238 2.121,-0.238 l 0.235,0 L 7.306,0 c 0,0.785 0.079,1.257 0.235,1.413 0.315,0 0.943,0.081 1.885,0.237 l 1.65,0 0,0.706 -0.235,0.236 -1.884,0.471 C 8.013,3.379 7.541,3.613 7.541,3.77 l 0,0.471 0.472,1.416 0.235,0.235 -0.47,0.471 C 7.463,6.677 6.756,6.991 5.656,7.305 5.813,7.464 6.285,7.542 7.069,7.542 L 8.248,7.305 C 9.348,7.148 10.135,6.835 10.604,6.363 11.232,5.892 12.02,4.87 12.96,3.301 l 0.709,0 0.235,0.234 0,0.472 c 0,1.413 0.157,2.278 0.472,2.591 l 1.885,0.237 0.234,0 c 0.316,0.629 0.472,1.569 0.472,2.826 0.472,-0.47 0.706,-1.098 0.706,-1.885 l 0,-2.119 C 17.673,4.87 17.595,4.32 17.439,4.007 17.282,3.851 16.889,3.457 16.261,2.829 L 15.083,1.413 c 0.156,-0.312 0.314,-0.862 0.471,-1.647 0.313,-0.944 0.472,-1.494 0.472,-1.651 l 0.235,0 c 0.471,-0.314 2.434,-0.55 5.891,-0.706 l 3.535,-0.237 0.471,0 -0.237,0.472 c -0.469,0.785 -0.234,3.85 0.709,9.191 l 0.235,1.413 c 0.471,1.729 0.863,2.75 1.178,3.064 0.157,0.471 0.785,1.021 1.885,1.649 l 3.534,1.65 c 2.201,0.785 3.301,1.335 3.301,1.65 l -0.472,2.12 c -0.785,3.3 -1.963,5.734 -3.535,7.307 -0.472,0.468 -1.1,1.569 -1.885,3.296 l 7.304,8.955 0,0.237 -0.471,0.235 -16.496,-20.737 c -0.469,0 -0.706,0.235 -0.706,0.707 -0.157,0.943 -0.313,1.493 -0.472,1.649 -0.469,0.316 -1.335,0.472 -2.591,0.472 l -0.472,-0.706 c -0.472,-0.787 -1.1,-1.65 -1.884,-2.594 -0.316,-0.472 -0.707,-0.628 -1.179,-0.472 l -0.706,0.238 -0.238,0 0.238,-6.835 -2.357,0 0,6.363 -0.237,0 c -0.313,0 -0.785,-0.393 -1.413,-1.179 L 8.957,14.846 8.719,15.553 9.191,16.73 c 0.315,0.788 0.863,1.651 1.65,2.594 l 0,3.534 -0.706,0 c -0.316,0 -0.629,0.473 -0.944,1.413 0.157,0.629 -0.078,1.023 -0.707,1.179 l -0.471,0.238 -1.885,0 C 6.285,26 6.6,26.237 7.069,26.394 l 0.472,0 c 0.157,0.156 0.865,0.312 2.122,0.471 l 0.941,0.235 0.237,0 0,20.974 -0.706,-0.709 -0.238,0 c -0.471,0 -1.178,0.159 -2.119,0.472 -0.787,-0.472 -1.493,-1.1 -2.122,-1.885 l 0,-0.472 c -0.471,0.628 -0.393,1.494 0.235,2.594 l 0.472,0.706 c 0.628,1.257 1.65,2.12 3.063,2.592 l 1.178,0.471 0.237,0 0,0.707 -0.237,0.237 -2.356,0.469 -0.235,0.237 c -0.315,0.629 -0.472,1.335 -0.472,2.12 l 0,0.237 -0.235,0 -1.65,0.471 -1.178,0 c 0.157,0.47 0.55,0.707 1.178,0.707 l 1.413,0.235 0.709,0 c 1.098,0.156 1.963,0 2.591,-0.472 l 0.472,-0.235 0,5.891 z m 0,7.304 2.12,0 0,-2.119 -2.12,0 0,2.119 z m 35.582,46.895 c -0.785,-0.784 -1.728,-1.412 -2.828,-1.884 l -0.47,0 c -0.158,-0.157 -0.393,-0.237 -0.708,-0.237 l -1.179,-0.235 -0.469,0 c -1.1,0.157 -1.807,0.315 -2.122,0.472 -1.256,0.313 -2.356,0.941 -3.3,1.884 -1.097,0.944 -1.806,2.123 -2.119,3.536 l 15.317,0 c -0.316,-1.257 -1.022,-2.435 -2.122,-3.536 m -3.298,-2.59 -0.471,-9.663 c -1.1,0.315 -2.2,0.315 -3.3,0 l -0.472,7.069 0,0.472 -0.235,2.122 0,0.234 c 0.785,-0.315 1.413,-0.472 1.885,-0.472 l 1.178,0 c 0.628,0.157 1.1,0.238 1.415,0.238 m -0.471,-10.135 0.234,0 c 0.944,-0.313 1.572,-0.863 1.885,-1.648 0.628,-1.259 -0.234,-3.065 -2.591,-5.422 l -0.235,-0.234 0.941,-0.707 0,0.235 c 1.729,1.884 3.222,2.828 4.479,2.828 0.784,0 1.413,-0.393 1.884,-1.178 0.472,-0.785 0.707,-1.65 0.707,-2.591 0,-1.1 -0.235,-2.044 -0.707,-2.829 -0.471,-0.787 -1.1,-1.178 -1.884,-1.178 -1.257,0 -2.75,0.941 -4.479,2.828 l 0,0.235 -0.706,-0.706 c 0.156,-0.944 0.706,-2.122 1.65,-3.535 0.941,-1.728 1.806,-2.907 2.591,-3.535 3.144,-1.1 6.285,-1.1 9.426,0 0.629,0.472 1.415,1.57 2.357,3.298 0.787,1.415 1.256,2.515 1.415,3.3 l -0.709,0.706 0,-0.234 c -1.569,-1.572 -2.907,-2.357 -4.004,-2.357 -0.787,0 -1.493,0.391 -2.122,1.178 -0.315,0.628 -0.472,1.413 -0.472,2.357 0,0.941 0.157,1.728 0.472,2.356 0.629,0.785 1.335,1.179 2.122,1.179 1.097,0 2.435,-0.788 4.004,-2.357 l 0.943,0.707 -0.234,0 c -2.044,2.199 -2.75,3.849 -2.122,4.947 0.315,0.787 0.863,1.337 1.65,1.65 l 0.472,0 c 1.413,0.315 2.591,0.315 3.535,0 l 0.234,-0.235 c 0.785,-0.156 1.257,-0.628 1.413,-1.415 0.629,-1.098 -0.078,-2.748 -2.119,-4.947 l -0.237,0 0.709,-0.707 0.234,0 c 1.572,1.569 2.907,2.357 4.007,2.357 1.728,0 2.591,-1.179 2.591,-3.535 0,-2.357 -0.863,-3.535 -2.591,-3.535 -1.1,0 -2.435,0.785 -4.007,2.357 l -0.234,0.234 -0.472,-0.706 c 0.156,-0.785 0.628,-1.885 1.413,-3.3 0.944,-1.728 1.728,-2.826 2.356,-3.298 3.144,-1.256 6.363,-1.256 9.663,0 0.313,0.313 0.942,1.1 1.885,2.356 0.941,1.413 1.65,2.514 2.12,3.298 l 0,0.237 -0.707,0.707 -0.235,-0.235 c -1.728,-1.728 -3.221,-2.594 -4.478,-2.594 -1.728,0 -2.591,1.257 -2.591,3.772 0,0.941 0.235,1.807 0.706,2.592 0.472,0.628 1.101,0.943 1.885,0.943 1.257,0 2.75,-0.865 4.478,-2.594 l 0.235,-0.234 0.707,0.941 -0.235,0 c -1.413,1.887 -1.807,3.378 -1.178,4.478 0.471,0.785 1.413,1.257 2.828,1.413 0.784,0.159 1.65,0.159 2.591,0 0.472,-0.156 0.943,-0.313 1.415,-0.469 -0.472,-1.728 -1.337,-5.029 -2.593,-9.898 -1.257,-5.028 -2.041,-8.719 -2.357,-11.076 l -79.414,0 c -0.313,2.357 -1.097,6.048 -2.356,11.076 -1.098,4.869 -1.964,8.17 -2.592,9.898 0.472,0.156 0.944,0.313 1.414,0.469 0.786,0.159 1.649,0.159 2.593,0 1.413,-0.156 2.356,-0.628 2.828,-1.413 0.628,-1.1 0.235,-2.591 -1.178,-4.478 l -0.237,0 0.706,-0.941 0.237,0.234 c 1.729,1.729 3.22,2.594 4.476,2.594 0.944,0 1.65,-0.393 2.122,-1.178 0.315,-0.629 0.472,-1.416 0.472,-2.357 0,-2.515 -0.866,-3.772 -2.594,-3.772 -1.256,0 -2.747,0.866 -4.476,2.594 L 2.356,93.082 1.65,92.375 1.887,92.138 C 2.2,91.354 2.828,90.253 3.771,88.84 c 0.942,-1.256 1.65,-2.043 2.12,-2.356 1.259,-0.628 2.828,-0.943 4.713,-0.943 1.887,0 3.535,0.315 4.95,0.943 0.628,0.472 1.335,1.57 2.119,3.298 0.787,1.415 1.259,2.515 1.416,3.3 l 0.235,0 -0.707,0.706 -0.235,-0.234 c -1.571,-1.572 -2.906,-2.357 -4.006,-2.357 -0.787,0 -1.416,0.391 -1.885,1.178 -0.471,0.628 -0.709,1.413 -0.709,2.357 0,0.941 0.238,1.728 0.709,2.356 0.469,0.785 1.098,1.179 1.885,1.179 1.1,0 2.435,-0.788 4.006,-2.357 l 0.235,0 0.707,0.707 -0.235,0 c -1.885,2.041 -2.594,3.691 -2.122,4.947 0.157,0.628 0.55,1.1 1.178,1.415 l 0.237,0 c 0.629,0.313 1.179,0.472 1.648,0.472 l 0.709,0 c 0.469,0 0.941,-0.08 1.413,-0.237 l 0.235,0 c 0.943,-0.156 1.65,-0.706 2.121,-1.65 0.472,-1.256 -0.235,-2.906 -2.121,-4.947 l -0.235,0 0.706,-0.707 0.237,0 c 1.57,1.569 2.907,2.357 4.005,2.357 1.571,0 2.356,-1.179 2.356,-3.535 0,-2.357 -0.785,-3.535 -2.356,-3.535 -1.098,0 -2.435,0.785 -4.005,2.357 l -0.237,0.234 -0.706,-0.706 c 0.156,-0.785 0.785,-1.963 1.885,-3.535 0.943,-1.572 1.728,-2.591 2.356,-3.063 2.828,-1.1 5.891,-1.1 9.191,0 0.785,0.628 1.65,1.807 2.591,3.535 0.787,1.569 1.335,2.748 1.651,3.535 l -0.707,0.706 -0.237,-0.235 c -1.728,-1.887 -3.219,-2.828 -4.476,-2.828 -0.787,0 -1.415,0.391 -1.885,1.178 -0.315,0.785 -0.472,1.729 -0.472,2.829 0,0.941 0.157,1.806 0.472,2.591 0.47,0.785 1.098,1.178 1.885,1.178 1.257,0 2.748,-0.944 4.476,-2.828 l 0.237,-0.235 0.707,0.707 -0.235,0.234 c -2.2,2.2 -3.066,4.007 -2.594,5.422 0.316,0.785 0.944,1.256 1.885,1.413 l 0.237,0.235 0.235,0 c 0.472,0.159 1.021,0.237 1.65,0.237 0.472,0 0.863,-0.078 1.178,-0.237 l 0.472,0 z m 38.882,-23.8 c 12.41,10.054 26.156,18.774 41.238,26.156 -8.797,-17.752 -18.223,-32.519 -28.277,-44.301 0.156,5.656 0.234,11.626 0.234,17.91 l 0,0.235 -13.195,0 z m -16.733,31.813 c 0,1.256 -0.156,2.122 -0.469,2.591 6.282,0 10.761,-0.156 13.43,-0.469 l 0.944,0 0.706,0 c 2.672,-0.473 4.4,-1.179 5.185,-2.122 0.156,-0.157 0.315,-0.315 0.471,-0.472 0.141,-0.704 0.219,-1.726 0.235,-3.063 l 0,-0.472 c -0.313,-1.1 -0.784,-2.985 -1.413,-5.654 l 0,-0.237 c -1.415,0.315 -2.593,0.315 -3.535,0 0.472,2.513 0.785,4.163 0.942,4.95 0.159,1.413 0,2.435 -0.47,3.063 -0.628,0.784 -2.043,1.335 -4.243,1.65 -1.57,0.156 -4.633,0.235 -9.189,0.235 l -2.594,0 z m -21.678,17.908 c 1.729,-0.469 3.063,-1.335 4.004,-2.591 0.629,-0.785 1.1,-1.65 1.416,-2.591 l -5.42,0 0,5.182 z m 5.655,-7.539 c 0.156,-0.315 0.156,-0.865 0,-1.65 l -15.789,0 0,0.472 0,1.178 0.237,1.885 5.891,0 0,5.891 1.885,0.235 1.65,-0.235 0,-5.891 6.126,0 0,-0.472 0,-1.413 z m 15.317,-8.485 c 0.15,-0.89 0.071,-2.54 -0.235,-4.947 0.016,-0.168 0.016,-0.325 0,-0.472 0,-0.316 -0.078,-0.628 -0.237,-0.943 l -0.469,-3.77 -1.887,0.235 -1.648,-0.235 0.469,2.122 0,1.178 c 0.316,2.669 0.237,4.398 -0.235,5.182 -0.784,0.629 -2.199,0.944 -4.241,0.944 -1.572,0 -5.578,-0.315 -12.019,-0.944 l 0,2.122 c 6.913,0.785 11.626,1.257 14.139,1.413 3.143,0 5.106,-0.391 5.891,-1.178 0.159,-0.156 0.315,-0.391 0.472,-0.707 m -21.443,26.393 4.475,0 0,-3.299 -4.475,0 0,-6.361 -1.65,0.235 -1.885,-0.235 0,6.361 -4.478,0 0,3.299 4.478,0 0,4.948 3.535,0 0,-4.948 z"
         style="fill:#fbd712;fill-opacity:1;fill-rule:evenodd;stroke:none"
         id="path30"
         inkscape:connector-curvature="0" /></g><g
       id="g32"
       transform="translate(54.906846,50.339164)"><path
         d="m 0,0 0.234,-0.234 -27.099,-27.1 c -2.357,0.628 -4.476,0.156 -6.361,-1.415 -1.258,-1.257 -1.887,-2.748 -1.887,-4.477 0,-1.727 0.629,-3.221 1.887,-4.477 1.257,-1.257 2.748,-1.885 4.476,-1.885 1.729,0 3.222,0.628 4.479,1.885 1.728,1.727 2.278,3.771 1.649,6.128 l -0.236,0.234 27.099,27.1 0.237,-0.235 c 5.341,-5.34 10.761,-11.469 16.258,-18.382 l 4.007,4.006 c -3.928,3.144 -7.932,6.52 -12.017,10.133 L -4.241,8.248 c -3.613,3.929 -6.991,7.935 -10.133,12.02 L -18.38,16.024 C -12.254,11.154 -6.126,5.813 0,0 m 89.781,-4.241 27.1,-27.1 0,-0.234 c -0.785,-2.357 -0.313,-4.401 1.415,-6.128 1.257,-1.257 2.748,-1.885 4.476,-1.885 1.728,0 3.222,0.628 4.478,1.885 1.257,1.256 1.885,2.75 1.885,4.477 0,1.729 -0.628,3.22 -1.885,4.477 -1.884,1.571 -3.928,2.043 -6.125,1.415 l -0.238,0 -27.099,27.1 L 94.025,0 c 6.282,5.97 12.411,11.312 18.38,16.024 l -4.007,4.244 C 105.257,16.34 101.957,12.411 98.5,8.485 L 98.266,8.248 C 94.653,4.322 91.903,1.416 90.018,-0.472 l -8.719,-8.247 c -4.085,-3.613 -8.091,-6.989 -12.017,-10.133 l 4.004,-4.006 c 5.5,6.913 10.919,13.042 16.26,18.382 l 0.235,0.235 z m -96.144,84.362 0,-0.941 c -10.526,12.411 -20.265,27.569 -29.219,45.48 l -0.237,0.706 0.471,-0.235 c 15.396,-7.384 29.456,-16.182 42.182,-26.393 l 0,-0.471 -0.236,0 C -5.97,108.321 -19.795,117.04 -34.876,124.423 -26.237,106.986 -16.73,92.219 -6.363,80.121 M 19.324,-2.591 13.432,-8.719 c 2.985,-2.67 6.913,-5.969 11.783,-9.895 l 0.235,-0.238 -4.714,-4.947 -0.234,0.235 c -4.713,6.127 -10.133,12.332 -16.261,18.617 l -26.393,-26.628 c 0.628,-2.516 0,-4.713 -1.885,-6.6 -1.256,-1.257 -2.828,-1.885 -4.713,-1.885 -1.885,0 -3.457,0.628 -4.713,1.885 -1.256,1.415 -1.885,3.065 -1.885,4.949 0,1.729 0.629,3.298 1.885,4.714 1.885,1.885 4.006,2.435 6.363,1.65 l 26.628,26.628 c -5.813,5.654 -11.939,10.995 -18.38,16.023 l -0.235,0.235 4.948,4.951 0,-0.238 c 4.085,-5.026 7.463,-9.032 10.132,-12.017 l 9.898,9.897 c 0,-0.156 0.078,-0.314 0.235,-0.471 L -3.77,8.485 12.96,-8.247 l 6.126,6.128 c 0.072,-0.143 0.15,-0.299 0.238,-0.472 m 55.377,0 c 0.085,0.173 0.166,0.329 0.235,0.472 l 6.128,-6.128 c 0.785,0.628 1.569,1.335 2.356,2.121 2.198,2.042 4.242,4.085 6.126,6.126 l 8.248,8.485 -9.898,9.661 c 0.157,0.157 0.316,0.315 0.472,0.471 L 98.029,8.72 c 2.672,3.141 6.05,7.147 10.135,12.017 l 0.234,0.238 4.713,-4.951 -0.235,-0.235 C 106.277,10.604 100.151,5.264 94.494,-0.234 l 26.631,-26.628 c 2.512,0.785 4.632,0.235 6.36,-1.65 1.415,-1.416 2.122,-2.985 2.122,-4.714 0,-1.884 -0.707,-3.534 -2.122,-4.949 -1.256,-1.257 -2.826,-1.885 -4.713,-1.885 -1.885,0 -3.454,0.628 -4.713,1.885 -1.885,1.887 -2.513,4.084 -1.885,6.6 L 89.781,-4.947 c -6.126,-6.285 -11.545,-12.49 -16.258,-18.617 l 0,-0.235 -4.95,4.947 0.237,0.238 c 4.869,3.926 8.876,7.225 12.017,9.895 l -6.126,6.128 z M 87.19,98.738 c 12.882,10.367 26.943,19.165 42.182,26.393 l 0.707,0.235 -0.472,-0.706 c -9.111,-18.224 -18.852,-33.385 -29.222,-45.48 0,0.313 0.081,0.628 0.238,0.941 10.054,11.783 19.48,26.55 28.277,44.302 -15.082,-7.383 -28.828,-16.102 -41.238,-26.156 l -0.472,0 0,0.471 z"
         style="fill:#000000;fill-opacity:1;fill-rule:evenodd;stroke:none"
         id="path34"
         inkscape:connector-curvature="0" /></g><g
       id="g36"
       transform="translate(71.873646,130.93196)"><path
         d="m 0,0 c -1.728,0 -2.906,-0.156 -3.535,-0.472 -1.728,-0.471 -4.162,-2.591 -7.306,-6.362 -1.728,2.515 -3.063,6.049 -4.004,10.604 -0.787,3.772 -1.022,6.519 -0.709,8.247 C -10.998,8.72 -7.856,6.754 -6.128,6.126 -4.713,5.657 -2.671,5.341 0,5.185 l 2.12,0 2.122,0 0,-5.419 C 3.457,-0.078 2.748,0 2.12,0 L 0,0 z"
         style="fill:#fefefe;fill-opacity:1;fill-rule:evenodd;stroke:none"
         id="path38"
         inkscape:connector-curvature="0" /></g></g></svg>