<?xml version="1.0" encoding="UTF-8" standalone="no"?>
<svg
   xmlns:ooo="http://xml.openoffice.org/svg/export"
   xmlns:dc="http://purl.org/dc/elements/1.1/"
   xmlns:cc="http://creativecommons.org/ns#"
   xmlns:rdf="http://www.w3.org/1999/02/22-rdf-syntax-ns#"
   xmlns:svg="http://www.w3.org/2000/svg"
   xmlns="http://www.w3.org/2000/svg"
   xmlns:sodipodi="http://sodipodi.sourceforge.net/DTD/sodipodi-0.dtd"
   xmlns:inkscape="http://www.inkscape.org/namespaces/inkscape"
   version="1.2"
   width="210mm"
   height="297mm"
   viewBox="0 0 21000 29700"
   preserveAspectRatio="xMidYMid"
   fill-rule="evenodd"
   clip-path="url(#presentation_clip_path)"
   stroke-width="28.222"
   stroke-linejoin="round"
   xml:space="preserve"
   id="svg3193"
   inkscape:version="0.48.4 r9939"
   sodipodi:docname="Untitled 1.svg"><metadata
     id="metadata3361"><rdf:RDF><cc:Work
         rdf:about=""><dc:format>image/svg+xml</dc:format><dc:type
           rdf:resource="http://purl.org/dc/dcmitype/StillImage" /></cc:Work></rdf:RDF></metadata><sodipodi:namedview
     pagecolor="#ffffff"
     bordercolor="#666666"
     borderopacity="1"
     objecttolerance="10"
     gridtolerance="10"
     guidetolerance="10"
     inkscape:pageopacity="0"
     inkscape:pageshadow="2"
     inkscape:window-width="1920"
     inkscape:window-height="1031"
     id="namedview3359"
     showgrid="false"
     showguides="true"
     inkscape:guide-bbox="true"
     inkscape:zoom="3.6209397"
     inkscape:cx="170.44525"
     inkscape:cy="755.92912"
     inkscape:window-x="0"
     inkscape:window-y="25"
     inkscape:window-maximized="1"
     inkscape:current-layer="id1" /><defs
     class="ClipPathGroup"
     id="defs3195"><clipPath
       id="presentation_clip_path"
       clipPathUnits="userSpaceOnUse"><rect
         x="0"
         y="0"
         width="21000"
         height="29700"
         id="rect3198" /></clipPath></defs><defs
     class="TextShapeIndex"
     id="defs3200"><g
       ooo:slide="id1"
       ooo:id-list="id3 id4 id5 id6 id7 id8 id9 id10 id11 id12"
       id="g3202" /></defs><defs
     class="EmbeddedBulletChars"
     id="defs3204"><g
       id="bullet-char-template(57356)"
       transform="scale(0.00048828125,-0.00048828125)"><path
         d="M 580,1141 L 1163,571 580,0 -4,571 580,1141 Z"
         id="path3207" /></g><g
       id="bullet-char-template(57354)"
       transform="scale(0.00048828125,-0.00048828125)"><path
         d="M 8,1128 L 1137,1128 1137,0 8,0 8,1128 Z"
         id="path3210" /></g><g
       id="bullet-char-template(10146)"
       transform="scale(0.00048828125,-0.00048828125)"><path
         d="M 174,0 L 602,739 174,1481 1456,739 174,0 Z M 1358,739 L 309,1346 659,739 1358,739 Z"
         id="path3213" /></g><g
       id="bullet-char-template(10132)"
       transform="scale(0.00048828125,-0.00048828125)"><path
         d="M 2015,739 L 1276,0 717,0 1260,543 174,543 174,936 1260,936 717,1481 1274,1481 2015,739 Z"
         id="path3216" /></g><g
       id="bullet-char-template(10007)"
       transform="scale(0.00048828125,-0.00048828125)"><path
         d="M 0,-2 C -7,14 -16,27 -25,37 L 356,567 C 262,823 215,952 215,954 215,979 228,992 255,992 264,992 276,990 289,987 310,991 331,999 354,1012 L 381,999 492,748 772,1049 836,1024 860,1049 C 881,1039 901,1025 922,1006 886,937 835,863 770,784 769,783 710,716 594,584 L 774,223 C 774,196 753,168 711,139 L 727,119 C 717,90 699,76 672,76 641,76 570,178 457,381 L 164,-76 C 142,-110 111,-127 72,-127 30,-127 9,-110 8,-76 1,-67 -2,-52 -2,-32 -2,-23 -1,-13 0,-2 Z"
         id="path3219" /></g><g
       id="bullet-char-template(10004)"
       transform="scale(0.00048828125,-0.00048828125)"><path
         d="M 285,-33 C 182,-33 111,30 74,156 52,228 41,333 41,471 41,549 55,616 82,672 116,743 169,778 240,778 293,778 328,747 346,684 L 369,508 C 377,444 397,411 428,410 L 1163,1116 C 1174,1127 1196,1133 1229,1133 1271,1133 1292,1118 1292,1087 L 1292,965 C 1292,929 1282,901 1262,881 L 442,47 C 390,-6 338,-33 285,-33 Z"
         id="path3222" /></g><g
       id="bullet-char-template(9679)"
       transform="scale(0.00048828125,-0.00048828125)"><path
         d="M 813,0 C 632,0 489,54 383,161 276,268 223,411 223,592 223,773 276,916 383,1023 489,1130 632,1184 813,1184 992,1184 1136,1130 1245,1023 1353,916 1407,772 1407,592 1407,412 1353,268 1245,161 1136,54 992,0 813,0 Z"
         id="path3225" /></g><g
       id="bullet-char-template(8226)"
       transform="scale(0.00048828125,-0.00048828125)"><path
         d="M 346,457 C 273,457 209,483 155,535 101,586 74,649 74,723 74,796 101,859 155,911 209,963 273,989 346,989 419,989 480,963 531,910 582,859 608,796 608,723 608,648 583,586 532,535 482,483 420,457 346,457 Z"
         id="path3228" /></g><g
       id="bullet-char-template(8211)"
       transform="scale(0.00048828125,-0.00048828125)"><path
         d="M -4,459 L 1135,459 1135,606 -4,606 -4,459 Z"
         id="path3231" /></g></defs><defs
     class="TextEmbeddedBitmaps"
     id="defs3233" /><g
     id="g3235"><g
       id="id2"
       class="Master_Slide"><g
         id="bg-id2"
         class="Background" /><g
         id="bo-id2"
         class="BackgroundObjects" /></g></g><g
     id="id1"
     class="Slide"
     clip-path="url(#presentation_clip_path)"><path
       style="fill:none;stroke:#3465af;stroke-width:35.27777863;stroke-miterlimit:4;stroke-dasharray:none"
       inkscape:connector-curvature="0"
       id="path3252"
       d="m 5914.5,5861 1144,1144 -2287,0 1143,-1144 z" /><path
       style="fill:none;stroke:#3465af"
       inkscape:connector-curvature="0"
       id="path3254"
       d="m 4810,5825 0,0 z" /><path
       style="fill:none;stroke:#3465af"
       inkscape:connector-curvature="0"
       id="path3256"
       d="m 7097,6969 0,0 z" /><path
       style="fill:none;stroke:#3465af;stroke-width:35.27777852;stroke-miterlimit:4;stroke-dasharray:none"
       inkscape:connector-curvature="0"
       id="path3296"
       d="m 3420,5861 1617,0 -1617,1617 0,-1617 z" /><path
       style="fill:none;stroke:#3465af"
       inkscape:connector-curvature="0"
       id="path3298"
       d="m 2611,6669 0,0 z" /><path
       style="fill:none;stroke:#3465af"
       inkscape:connector-curvature="0"
       id="path3300"
       d="m 5037,5861 0,0 z" /><path
       style="fill:none;stroke:#3465af;stroke-width:35.27777852;stroke-miterlimit:4;stroke-dasharray:none"
       inkscape:connector-curvature="0"
       id="path3340"
       d="m 8410,5861 0,1617 -1617,-1617 1617,0 z" /><path
       style="fill:none;stroke:#3465af"
       inkscape:connector-curvature="0"
       id="path3342"
       d="m 7602,5052 0,0 z" /><path
       style="fill:none;stroke:#3465af"
       inkscape:connector-curvature="0"
       id="path3344"
       d="m 8410,7478 0,0 z" /><g
       id="g3346"
       class="com.sun.star.drawing.CustomShape"
       transform="translate(-31.5,-154.01245)"><g
         id="id12"><path
           style="fill:#729fcf;stroke:none"
           inkscape:connector-curvature="0"
           id="path3349"
           d="m 5311,7858 1271,0 0,1271 -1271,0 0,-1271 z m 117,117 1036,0 0,1036 -1036,0 0,-1036 z m -117,-117 0,0 z m 1271,1271 0,0 z" /><path
           style="fill:none;stroke:#3465af"
           inkscape:connector-curvature="0"
           id="path3351"
           d="m 5311,7858 1271,0 0,1271 -1271,0 0,-1271 z" /><path
           style="fill:none;stroke:#3465af"
           inkscape:connector-curvature="0"
           id="path3353"
           d="m 5428,7975 1036,0 0,1036 -1036,0 0,-1036 z" /><path
           style="fill:none;stroke:#3465af"
           inkscape:connector-curvature="0"
           id="path3355"
           d="m 5311,7858 0,0 z" /><path
           style="fill:none;stroke:#3465af"
           inkscape:connector-curvature="0"
           id="path3357"
           d="m 6582,9129 0,0 z" /></g></g><path
       style="fill:none;stroke:#3465af;stroke-width:35.27777863;stroke-miterlimit:4;stroke-dasharray:none"
       inkscape:connector-curvature="0"
       id="path3252-9"
       d="m 5915.5,10786.581 -1144,-1143.9985 2287,0 -1143,1143.9985 z" /><path
       style="fill:none;stroke:#3465af;stroke-width:35.27777852;stroke-miterlimit:4;stroke-dasharray:none"
       inkscape:connector-curvature="0"
       id="path3254-4"
       d="m 4295.5635,8304.6829 0,0 z" /><path
       style="fill:none;stroke:#3465af;stroke-width:35.27777852;stroke-miterlimit:4;stroke-dasharray:none"
       inkscape:connector-curvature="0"
       id="path3256-1"
       d="m 6582.5635,9448.6829 0,0 z" /><path
       style="fill:none;stroke:#3465af;stroke-width:35.27777863;stroke-miterlimit:4;stroke-dasharray:none"
       inkscape:connector-curvature="0"
       id="path3296-9"
       d="m 8410,10786.581 -1616.9999,0 L 8410,9169.5825 l 0,1616.9985 z" /><path
       style="fill:none;stroke:#3465af;stroke-width:35.27777852;stroke-miterlimit:4;stroke-dasharray:none"
       inkscape:connector-curvature="0"
       id="path3298-0"
       d="m 2096.5636,9148.6829 0,0 z" /><path
       style="fill:none;stroke:#3465af;stroke-width:35.27777852;stroke-miterlimit:4;stroke-dasharray:none"
       inkscape:connector-curvature="0"
       id="path3300-4"
       d="m 4522.5635,8340.6829 0,0 z" /><path
       style="fill:none;stroke:#3465af;stroke-width:35.27777863;stroke-miterlimit:4;stroke-dasharray:none"
       inkscape:connector-curvature="0"
       id="path3340-4"
       d="m 3420,10786.581 0,-1616.9985 1616.9998,1616.9985 -1616.9998,0 z" /><path
       style="fill:none;stroke:#3465af;stroke-width:35.27777852;stroke-miterlimit:4;stroke-dasharray:none"
       inkscape:connector-curvature="0"
       id="path3344-9"
       d="m 7895.5634,9957.6829 0,0 z" /><path
       style="fill:none;stroke:#3465af;stroke-width:35.27777863;stroke-miterlimit:4;stroke-dasharray:none"
       inkscape:connector-curvature="0"
       id="path3252-2"
       d="m 3420,8339.9875 1144.0001,-1144 -1e-4,2287 -1144,-1143 z" /><path
       style="fill:none;stroke:#3465af;stroke-width:35.27777863;stroke-miterlimit:4;stroke-dasharray:none"
       inkscape:connector-curvature="0"
       id="path3252-9-7"
       d="m 8410,8338.9876 -1144.0002,1143.9999 0,-2286.9999 1144.0002,1143 z" /></g></svg>