<?xml version="1.0" encoding="utf-8"?>
<!-- Generator: Adobe Illustrator 15.1.0, SVG Export Plug-In  -->
<!DOCTYPE svg PUBLIC "-//W3C//DTD SVG 1.1//EN" "http://www.w3.org/Graphics/SVG/1.1/DTD/svg11.dtd" [
	<!ENTITY ns_flows "http://ns.adobe.com/Flows/1.0/">
]>
<svg version="1.1"
	 xmlns="http://www.w3.org/2000/svg" xmlns:xlink="http://www.w3.org/1999/xlink" xmlns:a="http://ns.adobe.com/AdobeSVGViewerExtensions/3.0/"
	 x="0px" y="0px" width="14px" height="14px" viewBox="0 -1.238 14 14" enable-background="new 0 -1.238 14 14"
	 xml:space="preserve">
<defs>
</defs>
<polygon fill="#333333" points="2.534,8.875 3.31,6.464 4.088,8.873 6.622,8.866 4.571,10.353 5.359,12.759 3.313,11.269 
	1.267,12.762 2.015,10.327 0,8.871 "/>
<polygon fill="#333333" points="9.913,8.875 10.689,6.464 11.467,8.873 14,8.866 11.949,10.353 12.738,12.759 10.691,11.269 
	8.646,12.762 9.394,10.327 7.379,8.871 "/>
<polygon fill="#333333" points="6.224,2.411 7,0 7.777,2.409 10.311,2.402 8.26,3.889 9.049,6.295 7.002,4.804 4.956,6.297 
	5.704,3.863 3.689,2.407 "/>
</svg>
