<svg xmlns="http://www.w3.org/2000/svg" xmlns:xlink="http://www.w3.org/1999/xlink" viewBox="0 0 83.592 83.609">
  <defs>
    <style>
      .cls-1 {
        fill: none;
      }

      .cls-2 {
        fill: #877040;
      }

      .cls-3 {
        clip-path: url(#clip-path);
      }

      .cls-4 {
        clip-path: url(#clip-path-2);
      }

      .cls-5 {
        fill: #866f40;
        fill-rule: evenodd;
      }

      .cls-6 {
        clip-path: url(#clip-path-3);
      }
    </style>
    <clipPath id="clip-path"/>
    <clipPath id="clip-path-2">
      <rect id="Rectangle_2" data-name="Rectangle 2" class="cls-1" width="83.005" height="82.975" transform="translate(-3.894 0.012)"/>
    </clipPath>
    <clipPath id="clip-path-3">
      <path id="Path_62" data-name="Path 62" class="cls-2" d="M0-56.693H83.591V26.916H0Z" transform="translate(0 0)"/>
    </clipPath>
  </defs>
  <g id="ICON_settings_N" transform="translate(-921.414 -78.342)">
    <g id="Group_5" data-name="Group 5" class="cls-3" transform="translate(922 161.95)">
      <g id="Group_4" data-name="Group 4" transform="translate(3.894 -82.987)">
        <g id="Group_3" data-name="Group 3">
          <g id="Group_2" data-name="Group 2" class="cls-4">
            <g id="Group_1" data-name="Group 1" transform="translate(68.718 14.097)">
              <path id="Path_1" data-name="Path 1" class="cls-5" d="M0,0Q-.732,2.137-2.5,6.469A22.877,22.877,0,0,0-4.15,12.206a29.2,29.2,0,0,1,1.77,3.723,23.29,23.29,0,0,0,5.493,2.319q2.2.672,6.652,2.075a33.649,33.649,0,0,1,.549,4.882,29,29,0,0,1-.061,4.943q-4.271,1.831-6.347,2.746a25.9,25.9,0,0,0-5.187,2.868,29.027,29.027,0,0,1-1.4,3.906,22.987,22.987,0,0,0,2.2,5.554Q.488,47.3,2.624,51.386a37.288,37.288,0,0,1-6.408,7.079q-4.332-1.648-6.408-2.5a25.012,25.012,0,0,0-5.737-1.587,32.245,32.245,0,0,1-3.784,1.831,25.588,25.588,0,0,0-2.319,5.432q-.672,2.2-2.075,6.652-3.112.428-4.882.549a38.175,38.175,0,0,1-4.882-.061q-1.891-4.271-2.746-6.347a21.807,21.807,0,0,0-2.929-5.187,38.219,38.219,0,0,1-3.906-1.4,24.044,24.044,0,0,0-5.554,2.136q-4.088,2.257-6.1,3.235A44.429,44.429,0,0,1-62.25,54.8q1.71-4.332,2.5-6.469A20.6,20.6,0,0,0-58.161,42.6q-1.1-2.074-1.77-3.723a23.415,23.415,0,0,0-5.432-2.319q-4.517-1.342-6.652-2.075a33.8,33.8,0,0,1-.549-4.943,41.066,41.066,0,0,1,.061-4.943q2.014-.853,6.347-2.685a25.868,25.868,0,0,0,5.187-2.868,24.713,24.713,0,0,1,1.4-3.906,22.6,22.6,0,0,0-2.2-5.615q-2.2-4.088-3.235-6.1a44.572,44.572,0,0,1,6.469-7.079q2.076.732,6.469,2.5A23.969,23.969,0,0,0-46.321.427,22.964,22.964,0,0,1-42.537-1.4a24.064,24.064,0,0,0,2.258-5.432q1.342-4.515,2.075-6.652,2.2-.366,4.882-.549a41.317,41.317,0,0,1,4.943.061q.978,2.014,2.746,6.347a25.93,25.93,0,0,0,2.868,5.187,37.013,37.013,0,0,1,3.906,1.4,27,27,0,0,0,5.554-2.2Q-11.23-4.271-7.14-6.408A41.591,41.591,0,0,1,0,0M-17.576,40.95A18.363,18.363,0,0,0-11.9,27.4a18.564,18.564,0,0,0-5.676-13.609A18.46,18.46,0,0,0-31.125,8.178a18.568,18.568,0,0,0-13.548,5.554l-.061.061A18.668,18.668,0,0,0-50.349,27.4,18.363,18.363,0,0,0-44.673,40.95a18.462,18.462,0,0,0,13.548,5.615A18.46,18.46,0,0,0-17.576,40.95"/>
            </g>
          </g>
        </g>
      </g>
      <g id="Group_76" data-name="Group 76" class="cls-6" transform="translate(-0.586 -26.915)">
        <g id="Group_75" data-name="Group 75" transform="translate(0 -56.693)">
          <path id="Path_61" data-name="Path 61" class="cls-2" d="M13.454,17.364A12.134,12.134,0,1,1,25.587,5.23,12.139,12.139,0,0,1,13.454,17.364m41.69-9.356A41.863,41.863,0,0,0,55.2,3.041a40.553,40.553,0,0,0-.581-4.933c-4.238-1.464-9.475-2.646-12.156-4.414a31.083,31.083,0,0,0-1.815-3.783c.257-3.249,2.61-8.074,4.146-12.271a41.787,41.787,0,0,0-7.179-6.471c-4.019,1.97-8.574,4.8-11.776,5.411a31.3,31.3,0,0,0-3.954-1.414c-2.04-2.483-3.758-7.57-5.651-11.63a42.213,42.213,0,0,0-4.968-.063,43.5,43.5,0,0,0-4.936.581c-1.46,4.24-2.637,9.475-4.405,12.159a30.855,30.855,0,0,0-3.79,1.817c-3.243-.261-8.07-2.607-12.273-4.15A42.071,42.071,0,0,0-20.6-18.936c1.966,4.013,4.808,8.57,5.406,11.774A30.253,30.253,0,0,0-16.6-3.212C-19.082-1.168-24.167.55-28.229,2.451a41.246,41.246,0,0,0-.059,4.967,39.978,39.978,0,0,0,.581,4.933c4.234,1.464,9.471,2.646,12.152,4.414a30.443,30.443,0,0,0,1.815,3.783c-.261,3.249-2.61,8.074-4.15,12.274a42.128,42.128,0,0,0,7.181,6.468c4.017-1.97,8.574-4.8,11.776-5.412A30.885,30.885,0,0,0,5.026,35.3c2.034,2.482,3.756,7.568,5.651,11.628a42.841,42.841,0,0,0,4.968.065,43.743,43.743,0,0,0,4.929-.583c1.461-4.238,2.637-9.475,4.405-12.161a30.682,30.682,0,0,0,3.793-1.815c3.244.261,8.068,2.607,12.27,4.151A41.973,41.973,0,0,0,47.509,29.4c-1.964-4.013-4.812-8.57-5.4-11.774a30.78,30.78,0,0,0,1.41-3.949c2.478-2.044,7.566-3.762,11.63-5.663" transform="translate(28.338 36.575)"/>
        </g>
      </g>
    </g>
  </g>
</svg>
